<svg viewBox="0 0 330 200" xmlns="http://www.w3.org/2000/svg"><g><g><g><g><g><line x1="60" y1="178" x2="55" y2="178" style="visibility: inherit;" fill="rgb(0, 0, 0)" stroke="rgb(204, 204, 204)" stroke-width="1px"></line><line x1="60" y1="165.28571428571428" x2="55" y2="165.28571428571428" style="visibility: inherit;" fill="rgb(0, 0, 0)" stroke="rgb(204, 204, 204)" stroke-width="1px"></line><line x1="60" y1="152.57142857142856" x2="55" y2="152.57142857142856" style="visibility: inherit;" fill="rgb(0, 0, 0)" stroke="rgb(204, 204, 204)" stroke-width="1px"></line><line x1="60" y1="139.85714285714283" x2="55" y2="139.85714285714283" style="visibility: inherit;" fill="rgb(0, 0, 0)" stroke="rgb(204, 204, 204)" stroke-width="1px"></line><line x1="60" y1="127.14285714285714" x2="55" y2="127.14285714285714" style="visibility: inherit;" fill="rgb(0, 0, 0)" stroke="rgb(204, 204, 204)" stroke-width="1px"></line><line x1="60" y1="114.42857142857143" x2="55" y2="114.42857142857143" style="visibility: inherit;" fill="rgb(0, 0, 0)" stroke="rgb(204, 204, 204)" stroke-width="1px"></line><line x1="60" y1="101.7142857142857" x2="55" y2="101.7142857142857" style="visibility: inherit;" fill="rgb(0, 0, 0)" stroke="rgb(204, 204, 204)" stroke-width="1px"></line><line x1="60" y1="89" x2="55" y2="89" style="visibility: inherit;" fill="rgb(0, 0, 0)" stroke="rgb(204, 204, 204)" stroke-width="1px"></line><line x1="60" y1="76.28571428571428" x2="55" y2="76.28571428571428" style="visibility: inherit;" fill="rgb(0, 0, 0)" stroke="rgb(204, 204, 204)" stroke-width="1px"></line><line x1="60" y1="63.571428571428584" x2="55" y2="63.571428571428584" style="visibility: inherit;" fill="rgb(0, 0, 0)" stroke="rgb(204, 204, 204)" stroke-width="1px"></line><line x1="60" y1="50.85714285714286" x2="55" y2="50.85714285714286" style="visibility: inherit;" fill="rgb(0, 0, 0)" stroke="rgb(204, 204, 204)" stroke-width="1px"></line><line x1="60" y1="38.14285714285714" x2="55" y2="38.14285714285714" style="visibility: inherit;" fill="rgb(0, 0, 0)" stroke="rgb(204, 204, 204)" stroke-width="1px"></line><line x1="60" y1="25.428571428571416" x2="55" y2="25.428571428571416" style="visibility: inherit;" fill="rgb(0, 0, 0)" stroke="rgb(204, 204, 204)" stroke-width="1px"></line><line x1="60" y1="12.714285714285694" x2="55" y2="12.714285714285694" style="visibility: inherit;" fill="rgb(0, 0, 0)" stroke="rgb(204, 204, 204)" stroke-width="1px"></line><line x1="60" y1="0" x2="55" y2="0" style="visibility: inherit;" fill="rgb(0, 0, 0)" stroke="rgb(204, 204, 204)" stroke-width="1px"></line></g><g transform="translate(50, 0)"><text x="0" y="178" dx="0em" dy="0.3em" style="text-anchor: end; visibility: hidden; font-family: &quot;Helvetica Neue&quot;, sans-serif; font-size: 12px; font-weight: 200;" fill="rgb(50, 49, 63)" stroke="none" stroke-width="1px">-0.1</text><text x="0" y="165.28571428571428" dx="0em" dy="0.3em" style="text-anchor: end; visibility: inherit; font-family: &quot;Helvetica Neue&quot;, sans-serif; font-size: 12px; font-weight: 200;" fill="rgb(50, 49, 63)" stroke="none" stroke-width="1px">-0.05</text><text x="0" y="152.57142857142856" dx="0em" dy="0.3em" style="text-anchor: end; visibility: hidden; font-family: &quot;Helvetica Neue&quot;, sans-serif; font-size: 12px; font-weight: 200;" fill="rgb(50, 49, 63)" stroke="none" stroke-width="1px">0</text><text x="0" y="139.85714285714283" dx="0em" dy="0.3em" style="text-anchor: end; visibility: inherit; font-family: &quot;Helvetica Neue&quot;, sans-serif; font-size: 12px; font-weight: 200;" fill="rgb(50, 49, 63)" stroke="none" stroke-width="1px">0.05</text><text x="0" y="127.14285714285714" dx="0em" dy="0.3em" style="text-anchor: end; visibility: hidden; font-family: &quot;Helvetica Neue&quot;, sans-serif; font-size: 12px; font-weight: 200;" fill="rgb(50, 49, 63)" stroke="none" stroke-width="1px">0.1</text><text x="0" y="114.42857142857143" dx="0em" dy="0.3em" style="text-anchor: end; visibility: inherit; font-family: &quot;Helvetica Neue&quot;, sans-serif; font-size: 12px; font-weight: 200;" fill="rgb(50, 49, 63)" stroke="none" stroke-width="1px">0.15</text><text x="0" y="101.7142857142857" dx="0em" dy="0.3em" style="text-anchor: end; visibility: hidden; font-family: &quot;Helvetica Neue&quot;, sans-serif; font-size: 12px; font-weight: 200;" fill="rgb(50, 49, 63)" stroke="none" stroke-width="1px">0.2</text><text x="0" y="89" dx="0em" dy="0.3em" style="text-anchor: end; visibility: inherit; font-family: &quot;Helvetica Neue&quot;, sans-serif; font-size: 12px; font-weight: 200;" fill="rgb(50, 49, 63)" stroke="none" stroke-width="1px">0.25</text><text x="0" y="76.28571428571428" dx="0em" dy="0.3em" style="text-anchor: end; visibility: hidden; font-family: &quot;Helvetica Neue&quot;, sans-serif; font-size: 12px; font-weight: 200;" fill="rgb(50, 49, 63)" stroke="none" stroke-width="1px">0.3</text><text x="0" y="63.571428571428584" dx="0em" dy="0.3em" style="text-anchor: end; visibility: inherit; font-family: &quot;Helvetica Neue&quot;, sans-serif; font-size: 12px; font-weight: 200;" fill="rgb(50, 49, 63)" stroke="none" stroke-width="1px">0.35</text><text x="0" y="50.85714285714286" dx="0em" dy="0.3em" style="text-anchor: end; visibility: hidden; font-family: &quot;Helvetica Neue&quot;, sans-serif; font-size: 12px; font-weight: 200;" fill="rgb(50, 49, 63)" stroke="none" stroke-width="1px">0.4</text><text x="0" y="38.14285714285714" dx="0em" dy="0.3em" style="text-anchor: end; visibility: inherit; font-family: &quot;Helvetica Neue&quot;, sans-serif; font-size: 12px; font-weight: 200;" fill="rgb(50, 49, 63)" stroke="none" stroke-width="1px">0.45</text><text x="0" y="25.428571428571416" dx="0em" dy="0.3em" style="text-anchor: end; visibility: hidden; font-family: &quot;Helvetica Neue&quot;, sans-serif; font-size: 12px; font-weight: 200;" fill="rgb(50, 49, 63)" stroke="none" stroke-width="1px">0.5</text><text x="0" y="12.714285714285694" dx="0em" dy="0.3em" style="text-anchor: end; visibility: inherit; font-family: &quot;Helvetica Neue&quot;, sans-serif; font-size: 12px; font-weight: 200;" fill="rgb(50, 49, 63)" stroke="none" stroke-width="1px">0.55</text><text x="0" y="0" dx="0em" dy="0.3em" style="text-anchor: end; visibility: hidden; font-family: &quot;Helvetica Neue&quot;, sans-serif; font-size: 12px; font-weight: 200;" fill="rgb(50, 49, 63)" stroke="none" stroke-width="1px">0.6</text></g><line x1="60" y1="0" x2="60" y2="178" fill="rgb(0, 0, 0)" stroke="rgb(204, 204, 204)" stroke-width="1px"></line></g></g><g transform="translate(60, 0)" clip-path="url(#clip_0)"><clipPath id="clip_0"><rect width="270" height="178"></rect></clipPath><g><g><g><line x1="0" y1="0" x2="0" y2="178" fill="rgb(0, 0, 0)" stroke="rgb(60, 60, 60)" stroke-width="1px" opacity="0.25"></line><line x1="20.76923076923077" y1="0" x2="20.76923076923077" y2="178" fill="rgb(0, 0, 0)" stroke="rgb(60, 60, 60)" stroke-width="1px" opacity="0.25"></line><line x1="41.53846153846154" y1="0" x2="41.53846153846154" y2="178" fill="rgb(0, 0, 0)" stroke="rgb(60, 60, 60)" stroke-width="1px" opacity="0.25"></line><line x1="62.307692307692314" y1="0" x2="62.307692307692314" y2="178" fill="rgb(0, 0, 0)" stroke="rgb(60, 60, 60)" stroke-width="1px" opacity="0.25"></line><line x1="83.07692307692308" y1="0" x2="83.07692307692308" y2="178" fill="rgb(0, 0, 0)" stroke="rgb(60, 60, 60)" stroke-width="1px" opacity="0.25"></line><line x1="103.84615384615385" y1="0" x2="103.84615384615385" y2="178" fill="rgb(0, 0, 0)" stroke="rgb(60, 60, 60)" stroke-width="1px" opacity="0.25"></line><line x1="124.61538461538463" y1="0" x2="124.61538461538463" y2="178" fill="rgb(0, 0, 0)" stroke="rgb(60, 60, 60)" stroke-width="1px" opacity="0.25"></line><line x1="145.3846153846154" y1="0" x2="145.3846153846154" y2="178" fill="rgb(0, 0, 0)" stroke="rgb(60, 60, 60)" stroke-width="1px" opacity="0.25"></line><line x1="166.15384615384616" y1="0" x2="166.15384615384616" y2="178" fill="rgb(0, 0, 0)" stroke="rgb(60, 60, 60)" stroke-width="1px" opacity="0.25"></line><line x1="186.9230769230769" y1="0" x2="186.9230769230769" y2="178" fill="rgb(0, 0, 0)" stroke="rgb(60, 60, 60)" stroke-width="1px" opacity="0.25"></line><line x1="207.6923076923077" y1="0" x2="207.6923076923077" y2="178" fill="rgb(0, 0, 0)" stroke="rgb(60, 60, 60)" stroke-width="1px" opacity="0.25"></line><line x1="228.46153846153845" y1="0" x2="228.46153846153845" y2="178" fill="rgb(0, 0, 0)" stroke="rgb(60, 60, 60)" stroke-width="1px" opacity="0.25"></line><line x1="249.23076923076925" y1="0" x2="249.23076923076925" y2="178" fill="rgb(0, 0, 0)" stroke="rgb(60, 60, 60)" stroke-width="1px" opacity="0.25"></line><line x1="270" y1="0" x2="270" y2="178" fill="rgb(0, 0, 0)" stroke="rgb(60, 60, 60)" stroke-width="1px" opacity="0.25"></line></g><g><line x1="0" y1="178" x2="270" y2="178" fill="rgb(0, 0, 0)" stroke="rgb(60, 60, 60)" stroke-width="1px" opacity="0.25"></line><line x1="0" y1="165.28571428571428" x2="270" y2="165.28571428571428" fill="rgb(0, 0, 0)" stroke="rgb(60, 60, 60)" stroke-width="1px" opacity="0.25"></line><line x1="0" y1="152.57142857142856" x2="270" y2="152.57142857142856" fill="rgb(0, 0, 0)" stroke="rgb(60, 60, 60)" stroke-width="1px" opacity="0.25"></line><line x1="0" y1="139.85714285714283" x2="270" y2="139.85714285714283" fill="rgb(0, 0, 0)" stroke="rgb(60, 60, 60)" stroke-width="1px" opacity="0.25"></line><line x1="0" y1="127.14285714285714" x2="270" y2="127.14285714285714" fill="rgb(0, 0, 0)" stroke="rgb(60, 60, 60)" stroke-width="1px" opacity="0.25"></line><line x1="0" y1="114.42857142857143" x2="270" y2="114.42857142857143" fill="rgb(0, 0, 0)" stroke="rgb(60, 60, 60)" stroke-width="1px" opacity="0.25"></line><line x1="0" y1="101.7142857142857" x2="270" y2="101.7142857142857" fill="rgb(0, 0, 0)" stroke="rgb(60, 60, 60)" stroke-width="1px" opacity="0.25"></line><line x1="0" y1="89" x2="270" y2="89" fill="rgb(0, 0, 0)" stroke="rgb(60, 60, 60)" stroke-width="1px" opacity="0.25"></line><line x1="0" y1="76.28571428571428" x2="270" y2="76.28571428571428" fill="rgb(0, 0, 0)" stroke="rgb(60, 60, 60)" stroke-width="1px" opacity="0.25"></line><line x1="0" y1="63.571428571428584" x2="270" y2="63.571428571428584" fill="rgb(0, 0, 0)" stroke="rgb(60, 60, 60)" stroke-width="1px" opacity="0.25"></line><line x1="0" y1="50.85714285714286" x2="270" y2="50.85714285714286" fill="rgb(0, 0, 0)" stroke="rgb(60, 60, 60)" stroke-width="1px" opacity="0.25"></line><line x1="0" y1="38.14285714285714" x2="270" y2="38.14285714285714" fill="rgb(0, 0, 0)" stroke="rgb(60, 60, 60)" stroke-width="1px" opacity="0.25"></line><line x1="0" y1="25.428571428571416" x2="270" y2="25.428571428571416" fill="rgb(0, 0, 0)" stroke="rgb(60, 60, 60)" stroke-width="1px" opacity="0.25"></line><line x1="0" y1="12.714285714285694" x2="270" y2="12.714285714285694" fill="rgb(0, 0, 0)" stroke="rgb(60, 60, 60)" stroke-width="1px" opacity="0.25"></line><line x1="0" y1="0" x2="270" y2="0" fill="rgb(0, 0, 0)" stroke="rgb(60, 60, 60)" stroke-width="1px" opacity="0.25"></line></g></g></g><g><g><line x1="0" y1="152.57142857142856" x2="270" y2="152.57142857142856" fill="rgb(0, 0, 0)" stroke="rgb(153, 153, 153)" stroke-width="1.5px"></line></g></g><g><g><line x1="20.76923076923077" y1="0" x2="20.76923076923077" y2="178" fill="rgb(0, 0, 0)" stroke="rgb(153, 153, 153)" stroke-width="1.5px"></line></g></g><g><g><g><g><g><path stroke="rgb(255, 112, 67)" stroke-width="2px" d="M26.896153846153847,-2.4539590555684754L27.934615384615388,3.8784648156698154L28.973076923076924,3.042289167387935L30.011538461538464,4.712568444388182L31.05,3.9712420587438544L32.08846153846154,13.317499657170856L33.12692307692308,24.338696306896594L34.16538461538462,21.71715953516147L35.20384615384615,16.855012404874117L36.24230769230769,14.754881181918847L37.28076923076923,18.705024555122662L38.31923076923077,17.91555855984518L39.357692307692304,20.71348112610164L40.39615384615385,20.855254744060886L41.434615384615384,26.841803630167817L42.473076923076924,32.18506242347499L43.51153846153846,34.81317420959988L44.550000000000004,29.7746311958266L45.58846153846154,34.3462923473798L46.62692307692308,35.13559475868428L47.66538461538461,39.402225874778395L48.70384615384616,34.961512342809016L49.74230769230769,36.672060357368196L50.78076923076923,41.210779481928114L51.81923076923077,42.48355839602641L52.85769230769231,46.27791738573643L53.896153846153844,42.619794745559375L54.934615384615384,46.29282125022098L55.973076923076924,43.02105700902766L57.011538461538464,41.89666528431704L58.05,46.03684869378657L59.088461538461544,49.236284003975044L60.12692307692308,50.53340258945899L61.16538461538462,43.545581522129L62.20384615384615,48.95093323185205L63.2423076923077,52.81642614551966L64.28076923076922,52.688250748743L65.31923076923077,47.31518957962189L66.3576923076923,48.17852365104028L67.39615384615385,48.762088555919206L68.43461538461538,45.68183203165307L69.47307692307692,44.25675668827924L70.51153846153846,43.108552338017205L71.55,48.071678009213485L72.58846153846154,46.66423697181571L73.62692307692308,53.10056809390686L74.66538461538461,48.990350807242464L75.70384615384616,55.652415925423284L76.74230769230769,58.507192197795874L77.78076923076922,57.2045170889142L78.81923076923076,58.646362411813755L79.85769230769232,56.97725718658765L80.89615384615385,58.13732059520599L81.93461538461538,60.77175260786932L82.97307692307692,57.574766534083935L84.01153846153846,50.87203031970729L85.05,51.66941141686755L86.08846153846153,49.86425129108204L87.12692307692306,54.01020070887297L88.16538461538462,54.805101410692785L89.20384615384616,60.3611702674645L90.24230769230769,58.776385646872214L91.28076923076922,60.20125887672283L92.31923076923077,68.17373884163689L93.3576923076923,58.074394020946315L94.39615384615384,62.1799705705115L95.43461538461538,59.52000957870041L96.47307692307693,65.62943508540295L97.51153846153846,60.62858038647083L98.55,59.12033885421222L99.58846153846153,60.87034390646478L100.62692307692308,65.11001603598919L101.66538461538461,62.290101280866935L102.70384615384616,65.86525616794076L103.74230769230769,67.84328991706433L104.78076923076924,68.5250798069978L105.81923076923077,67.65786111035356L106.8576923076923,68.57209087248263L107.89615384615384,62.74436429385568L108.93461538461538,64.88274666131358L109.97307692307693,63.87841027057658L111.01153846153846,62.54505068875673L112.05,65.64558237597028L113.08846153846154,67.32545285619392L114.12692307692308,66.42570968728376L115.16538461538461,69.94528583614127L116.20384615384614,66.57715323609682L117.2423076923077,66.48363363172156L118.28076923076924,69.63010743003129L119.31923076923077,70.92453768865319L120.3576923076923,76.57661944552181L121.39615384615385,74.15658487717376L122.43461538461538,72.22449368143118L123.47307692307692,71.1609772046364L124.51153846153845,63.833509765349945L125.55000000000001,67.59839072363562L126.58846153846154,69.07481991713297L127.62692307692308,74.7420876164567L128.66538461538462,76.63776974827324L129.70384615384617,67.45112703412934L130.7423076923077,65.35929706708973L131.78076923076924,68.4684357141722L132.81923076923076,71.9024915939304L133.8576923076923,73.1794769365458L134.89615384615385,76.3946761641509L135.9346153846154,75.54446452749838L136.97307692307695,72.11136415111294L138.01153846153846,71.10771045816871L139.05,72.91469166289956L140.08846153846153,77.51340413032119L141.12692307692308,77.29113854643873L142.1653846153846,75.41198329903416L143.20384615384614,77.12708198125372L144.2423076923077,77.89163713256502L145.28076923076924,76.52039754748336L146.31923076923078,71.12534116891447L147.3576923076923,71.00164775364057L148.39615384615385,71.99919195020809L149.43461538461537,72.6633890265331L150.47307692307692,78.06106337273748L151.51153846153846,78.57161161776305L152.54999999999998,79.08984512459504L153.58846153846156,79.1179507669371L154.62692307692308,74.6514526356623L155.66538461538462,80.36277728971038L156.70384615384614,84.29768378042608L157.7423076923077,81.75377751548291L158.78076923076924,75.65692779686997L159.81923076923076,72.38711514887525L160.8576923076923,76.45408431438136L161.89615384615385,80.36031313473217L162.9346153846154,80.07595190502884L163.97307692307692,79.60561624227573L165.01153846153846,79.4537010613597L166.05,70.92129038882781L167.08846153846153,70.1830681407347L168.12692307692308,73.13026824088831L169.1653846153846,82.33017563942805L170.20384615384617,77.05289540364585L171.2423076923077,80.04968370345635L172.28076923076924,78.21867928286264L173.31923076923078,78.84567179821141L174.3576923076923,82.06376799668197L175.39615384615385,82.13304241476507L176.43461538461537,80.71360992691038L177.47307692307692,79.5876339870758L178.51153846153846,82.09968956697386L179.55,84.28629369286027L180.58846153846156,82.99546009066383L181.62692307692308,82.94018046544174L182.66538461538462,81.9579361059012L183.70384615384614,82.32152191608458L184.7423076923077,81.29610389187094L185.7807692307692,79.05071726867055L186.81923076923078,76.7185512031823L187.8576923076923,75.41847582476451L188.89615384615385,76.54045476463847L189.9346153846154,80.86914053102208L190.97307692307692,77.77151660048887L192.01153846153846,79.72985550630729L193.04999999999998,76.44278630706282L194.08846153846153,76.19001971623582L195.12692307692308,78.67430334481935L196.16538461538462,75.73301113363112L197.20384615384617,81.93345705867837L198.2423076923077,79.03460430537565L199.28076923076924,77.52198400160613L200.31923076923076,81.96124842032926L201.3576923076923,87.91241818143295L202.39615384615382,84.50734803192407L203.4346153846154,83.1138818568742L204.47307692307695,83.84247050070158L205.51153846153846,82.52240576887448L206.55,83.8027665460197L207.58846153846153,83.07915429820858L208.62692307692308,85.36075130177541L209.6653846153846,84.24157924099568L210.70384615384614,81.43056292066113L211.7423076923077,80.63842651086533L212.78076923076924,82.32762371630533L213.81923076923078,75.01999054458943L214.8576923076923,82.1705030294405L215.89615384615385,83.38717436317908L216.93461538461537,84.81401441835519L217.97307692307692,84.12435342618575L219.01153846153846,85.24490589775463L220.04999999999998,86.39372178158142L221.08846153846156,83.61913792549444L222.12692307692308,79.94320554206381L223.16538461538462,84.80851371857717L224.20384615384614,88.31931263243501L225.2423076923077,87.57443659837539L226.28076923076924,85.96726038230184L227.31923076923076,85.08881078380266L228.3576923076923,85.5554144174077L229.39615384615385,89.2476129304641L230.4346153846154,86.57477233749557L231.47307692307692,90.30345275537753L232.51153846153846,87.81528632449772L233.55,86.52266287484652L234.58846153846153,84.16896138681021L235.62692307692308,86.07259746164196L236.6653846153846,86.17817006995915L237.70384615384617,87.90352682508271L238.7423076923077,88.96581664567391L239.78076923076924,92.65528157455275L240.81923076923078,88.58361908173377L241.8576923076923,90.78513120807126L242.89615384615385,91.94515561919418L243.93461538461537,89.85848493493202L244.97307692307692,93.67248988306201L246.01153846153846,91.3119862974454" style="fill: none;" fill="none"></path></g></g></g></g><g opacity="0.2"><g><g><g><path stroke="rgb(255, 112, 67)" stroke-width="2px" d="M23.78076923076923,-7.027565172740395L24.81923076923077,1.2558554581233352L25.857692307692307,-8.00716716902599L26.896153846153847,7.620525087629034L27.934615384615388,12.933932270322515L28.973076923076924,1.8231370449066162L30.011538461538464,7.17590594291687L31.05,2.8704587732042626L32.08846153846154,27.252116186278215L33.12692307692308,40.81051441601343L34.16538461538462,17.793414149965542L35.20384615384615,9.571317161832525L36.24230769230769,11.607152972902554L37.28076923076923,24.627453667776933L38.31923076923077,16.731693642480025L39.357692307692304,24.90965458324976L40.39615384615385,21.067893573216026L41.434615384615384,35.82107976504733L42.473076923076924,40.19965757642473L43.51153846153846,38.755255409649436L44.550000000000004,22.21691615240914L45.58846153846154,41.20372991902488L46.62692307692308,36.31954276561737L47.66538461538461,45.802154353686745L48.70384615384616,28.300453407423845L49.74230769230769,39.23787975311279L50.78076923076923,48.01885398796625L51.81923076923077,44.39272606372833L52.85769230769231,51.969454612050725L53.896153846153844,37.13261151313782L54.934615384615384,51.802360568727764L55.973076923076924,38.11341088158744L57.011538461538464,40.21007774557387L58.05,52.247123701231814L59.088461538461544,54.0354369197573L60.12692307692308,52.479080455643796L61.16538461538462,33.063849960054654L62.20384615384615,57.05896077837262L63.2423076923077,58.614665508270264L64.28076923076922,52.4959876537323L65.31923076923077,39.255597829818726L66.3576923076923,49.47352475779397L67.39615384615385,49.63743591308594L68.43461538461538,41.06144724573409L69.47307692307692,42.11914367335183L70.51153846153846,41.38624581268854L71.55,55.5163665158408L72.58846153846154,44.553075415747514L73.62692307692308,62.755064776965554L74.66538461538461,42.82502487727572L75.70384615384616,65.64551360266549L76.74230769230769,62.789356606347226L77.78076923076922,55.25050442559379L78.81923076923076,60.80913039616175L79.85769230769232,54.47359934874943L80.89615384615385,59.87741570813316L81.93461538461538,64.72340062686375L82.97307692307692,52.779287423406316L84.01153846153846,40.81792599814278L85.05,52.86548306260791L86.08846153846153,47.1565111024039L87.12692307692306,60.229124835559304L88.16538461538462,55.99745246342249L89.20384615384616,68.69527355262211L90.24230769230769,56.399208715983804L91.28076923076922,62.33856872149876L92.31923076923077,80.132458789008L93.3576923076923,42.925376789910445L94.39615384615384,68.33833539485931L95.43461538461538,55.530068090983804L96.47307692307693,74.7935733454568L97.51153846153846,53.127298338072634L98.55,56.85797655582428L99.58846153846153,63.49535148484367L100.62692307692308,71.46952423027584L101.66538461538461,58.06022914818354L102.70384615384616,71.22798849855151L103.74230769230769,70.81034054074969L104.78076923076924,69.54776464189801L105.81923076923077,66.35703306538718L106.8576923076923,69.94343551567623L107.89615384615384,54.002774425915305L108.93461538461538,68.09032021250043L109.97307692307693,62.37190568447113L111.01153846153846,60.54501131602696L112.05,70.29637990679059L113.08846153846154,69.84525857652936L114.12692307692308,65.07609493391854L115.16538461538461,75.22465005942753L116.20384615384614,61.52495433603015L117.2423076923077,66.34335422515869L118.28076923076924,74.34981812749591L119.31923076923077,72.86618307658604L120.3576923076923,85.05474208082471L121.39615384615385,70.52653302465167L122.43461538461538,69.32635688781738L123.47307692307692,69.56570248944419L124.51153846153845,52.84230860642023L125.55000000000001,73.24571216106415L126.58846153846154,71.28946370737893L127.62692307692308,83.24298916544232L128.66538461538462,79.48129294599805L129.70384615384617,53.67116296291351L130.7423076923077,62.221552116530276L131.78076923076924,73.13214368479592L132.81923076923076,77.05357541356769L133.8576923076923,75.09495495046887L134.89615384615385,81.21747500555855L135.9346153846154,74.26914707251957L136.97307692307695,66.96171358653477L138.01153846153846,69.6022299187524L139.05,75.62516346999577L140.08846153846153,84.4114728314536L141.12692307692308,76.95774017061505L142.1653846153846,72.59325042792729L143.20384615384614,79.69973000458309L144.2423076923077,79.03846985953194L145.28076923076924,74.46353816986084L146.31923076923078,63.03275660106114L147.3576923076923,70.81610763072968L148.39615384615385,73.49550824505943L149.43461538461537,73.65968464102063L150.47307692307692,86.15757489204407L151.51153846153846,79.33743398530143L152.54999999999998,79.86719538484301L153.58846153846156,79.16010923045022L154.62692307692308,67.95170543875012L155.66538461538462,88.92976427078247L156.70384615384614,90.20004351649965L157.7423076923077,77.93791811806815L158.78076923076924,66.51165321895054L159.81923076923076,67.48239617688316L160.8576923076923,82.5545380626406L161.89615384615385,86.21965636525836L162.9346153846154,79.64941006047385L163.97307692307692,78.90011274814606L165.01153846153846,79.22582828998566L166.05,58.12267438002995L167.08846153846153,69.07573476859501L168.12692307692308,77.55106839111873L169.1653846153846,96.13003673723766L170.20384615384617,69.13697504997253L171.2423076923077,84.54486615317208L172.28076923076924,75.47217265197209L173.31923076923078,79.78616057123456L174.3576923076923,86.89091229438782L175.39615384615385,82.23695404188973L176.43461538461537,78.5844611951283L177.47307692307692,77.89867007732391L178.51153846153846,85.86777293682098L179.55,87.56619988168988L180.58846153846156,81.0592096873692L181.62692307692308,82.8572610276086L182.66538461538462,80.48456956659045L183.70384615384614,82.86690063135964L184.7423076923077,79.7579768555505L185.7807692307692,75.68263733386993L186.81923076923078,73.22030210494995L187.8576923076923,73.46836275713784L188.89615384615385,78.22342317444938L189.9346153846154,87.36216918059758L190.97307692307692,73.12508070468903L192.01153846153846,82.66736386503491L193.04999999999998,71.51218250819615L194.08846153846153,75.8108698299953L195.12692307692308,82.40072878769466L196.16538461538462,71.32107281684875L197.20384615384617,91.23412594624928L198.2423076923077,74.68632517542157L199.28076923076924,75.25305354595184L200.31923076923076,88.62014504841396L201.3576923076923,96.83917282308852L202.39615384615382,79.39974280766079L203.4346153846154,81.02368259429932L204.47307692307695,84.93535346644265L205.51153846153846,80.54230867113385L206.55,85.72330771173749L207.58846153846153,81.99373592649188L208.62692307692308,88.78314680712563L209.6653846153846,82.56282114982605L210.70384615384614,77.21403844015938L211.7423076923077,79.45022189617157L212.78076923076924,84.86141952446529L213.81923076923078,64.05854078701563L214.8576923076923,92.89627175671714L215.89615384615385,85.21218136378697L216.93461538461537,86.95427450111934L217.97307692307692,83.0898619379316L219.01153846153846,86.92573460510799L220.04999999999998,88.1169456073216L221.08846153846156,79.45726214136396L222.12692307692308,74.42930696691785L223.16538461538462,92.10647598334721L224.20384615384614,93.58551100322178L225.2423076923077,86.45712254728589L226.28076923076924,83.55649605819157L227.31923076923076,83.7711363860539L228.3576923076923,86.25531986781529L229.39615384615385,94.78591070004872L230.4346153846154,82.56551144804273L231.47307692307692,95.89647338220051L232.51153846153846,84.08303667817798L233.55,84.58372770036969L234.58846153846153,80.63840915475573L235.62692307692308,88.92805157388959L236.6653846153846,86.33652898243496L237.70384615384617,90.49156195776803L238.7423076923077,90.55925137656075L239.78076923076924,98.18947896787098L240.81923076923078,82.47612534250531L241.8576923076923,94.08739939757756L242.89615384615385,93.68519223587853L243.93461538461537,86.72847890853882L244.97307692307692,99.39349730525697L246.01153846153846,87.77123091902051" style="fill: none;" fill="none"></path></g></g></g></g></g></g><g transform="translate(60, 178)" clip-path="url(#clip_1)"><clipPath id="clip_1"><rect width="270" height="22"></rect></clipPath><g><g><line x1="0" y1="0" x2="0" y2="5" style="visibility: inherit;" fill="rgb(0, 0, 0)" stroke="rgb(204, 204, 204)" stroke-width="1px"></line><line x1="20.76923076923077" y1="0" x2="20.76923076923077" y2="5" style="visibility: inherit;" fill="rgb(0, 0, 0)" stroke="rgb(204, 204, 204)" stroke-width="1px"></line><line x1="41.53846153846154" y1="0" x2="41.53846153846154" y2="5" style="visibility: inherit;" fill="rgb(0, 0, 0)" stroke="rgb(204, 204, 204)" stroke-width="1px"></line><line x1="62.307692307692314" y1="0" x2="62.307692307692314" y2="5" style="visibility: inherit;" fill="rgb(0, 0, 0)" stroke="rgb(204, 204, 204)" stroke-width="1px"></line><line x1="83.07692307692308" y1="0" x2="83.07692307692308" y2="5" style="visibility: inherit;" fill="rgb(0, 0, 0)" stroke="rgb(204, 204, 204)" stroke-width="1px"></line><line x1="103.84615384615385" y1="0" x2="103.84615384615385" y2="5" style="visibility: inherit;" fill="rgb(0, 0, 0)" stroke="rgb(204, 204, 204)" stroke-width="1px"></line><line x1="124.61538461538463" y1="0" x2="124.61538461538463" y2="5" style="visibility: inherit;" fill="rgb(0, 0, 0)" stroke="rgb(204, 204, 204)" stroke-width="1px"></line><line x1="145.3846153846154" y1="0" x2="145.3846153846154" y2="5" style="visibility: inherit;" fill="rgb(0, 0, 0)" stroke="rgb(204, 204, 204)" stroke-width="1px"></line><line x1="166.15384615384616" y1="0" x2="166.15384615384616" y2="5" style="visibility: inherit;" fill="rgb(0, 0, 0)" stroke="rgb(204, 204, 204)" stroke-width="1px"></line><line x1="186.9230769230769" y1="0" x2="186.9230769230769" y2="5" style="visibility: inherit;" fill="rgb(0, 0, 0)" stroke="rgb(204, 204, 204)" stroke-width="1px"></line><line x1="207.6923076923077" y1="0" x2="207.6923076923077" y2="5" style="visibility: inherit;" fill="rgb(0, 0, 0)" stroke="rgb(204, 204, 204)" stroke-width="1px"></line><line x1="228.46153846153845" y1="0" x2="228.46153846153845" y2="5" style="visibility: inherit;" fill="rgb(0, 0, 0)" stroke="rgb(204, 204, 204)" stroke-width="1px"></line><line x1="249.23076923076925" y1="0" x2="249.23076923076925" y2="5" style="visibility: inherit;" fill="rgb(0, 0, 0)" stroke="rgb(204, 204, 204)" stroke-width="1px"></line><line x1="270" y1="0" x2="270" y2="5" style="visibility: inherit;" fill="rgb(0, 0, 0)" stroke="rgb(204, 204, 204)" stroke-width="1px"></line></g><g transform="translate(0, 8)"><text x="0" y="0" dx="0em" dy="0.95em" style="text-anchor: middle; visibility: hidden; font-family: &quot;Helvetica Neue&quot;, sans-serif; font-size: 12px; font-weight: 200;" fill="rgb(50, 49, 63)" stroke="none" stroke-width="1px">-200</text><text x="20.76923076923077" y="0" dx="0em" dy="0.95em" style="text-anchor: middle; visibility: inherit; font-family: &quot;Helvetica Neue&quot;, sans-serif; font-size: 12px; font-weight: 200;" fill="rgb(50, 49, 63)" stroke="none" stroke-width="1px">0</text><text x="41.53846153846154" y="0" dx="0em" dy="0.95em" style="text-anchor: middle; visibility: hidden; font-family: &quot;Helvetica Neue&quot;, sans-serif; font-size: 12px; font-weight: 200;" fill="rgb(50, 49, 63)" stroke="none" stroke-width="1px">200</text><text x="62.307692307692314" y="0" dx="0em" dy="0.95em" style="text-anchor: middle; visibility: inherit; font-family: &quot;Helvetica Neue&quot;, sans-serif; font-size: 12px; font-weight: 200;" fill="rgb(50, 49, 63)" stroke="none" stroke-width="1px">400</text><text x="83.07692307692308" y="0" dx="0em" dy="0.95em" style="text-anchor: middle; visibility: hidden; font-family: &quot;Helvetica Neue&quot;, sans-serif; font-size: 12px; font-weight: 200;" fill="rgb(50, 49, 63)" stroke="none" stroke-width="1px">600</text><text x="103.84615384615385" y="0" dx="0em" dy="0.95em" style="text-anchor: middle; visibility: inherit; font-family: &quot;Helvetica Neue&quot;, sans-serif; font-size: 12px; font-weight: 200;" fill="rgb(50, 49, 63)" stroke="none" stroke-width="1px">800</text><text x="124.61538461538463" y="0" dx="0em" dy="0.95em" style="text-anchor: middle; visibility: hidden; font-family: &quot;Helvetica Neue&quot;, sans-serif; font-size: 12px; font-weight: 200;" fill="rgb(50, 49, 63)" stroke="none" stroke-width="1px">1k</text><text x="145.3846153846154" y="0" dx="0em" dy="0.95em" style="text-anchor: middle; visibility: inherit; font-family: &quot;Helvetica Neue&quot;, sans-serif; font-size: 12px; font-weight: 200;" fill="rgb(50, 49, 63)" stroke="none" stroke-width="1px">1.2k</text><text x="166.15384615384616" y="0" dx="0em" dy="0.95em" style="text-anchor: middle; visibility: hidden; font-family: &quot;Helvetica Neue&quot;, sans-serif; font-size: 12px; font-weight: 200;" fill="rgb(50, 49, 63)" stroke="none" stroke-width="1px">1.4k</text><text x="186.9230769230769" y="0" dx="0em" dy="0.95em" style="text-anchor: middle; visibility: inherit; font-family: &quot;Helvetica Neue&quot;, sans-serif; font-size: 12px; font-weight: 200;" fill="rgb(50, 49, 63)" stroke="none" stroke-width="1px">1.6k</text><text x="207.6923076923077" y="0" dx="0em" dy="0.95em" style="text-anchor: middle; visibility: hidden; font-family: &quot;Helvetica Neue&quot;, sans-serif; font-size: 12px; font-weight: 200;" fill="rgb(50, 49, 63)" stroke="none" stroke-width="1px">1.8k</text><text x="228.46153846153845" y="0" dx="0em" dy="0.95em" style="text-anchor: middle; visibility: inherit; font-family: &quot;Helvetica Neue&quot;, sans-serif; font-size: 12px; font-weight: 200;" fill="rgb(50, 49, 63)" stroke="none" stroke-width="1px">2k</text><text x="249.23076923076925" y="0" dx="0em" dy="0.95em" style="text-anchor: middle; visibility: hidden; font-family: &quot;Helvetica Neue&quot;, sans-serif; font-size: 12px; font-weight: 200;" fill="rgb(50, 49, 63)" stroke="none" stroke-width="1px">2.2k</text><text x="270" y="0" dx="0em" dy="0.95em" style="text-anchor: middle; visibility: hidden; font-family: &quot;Helvetica Neue&quot;, sans-serif; font-size: 12px; font-weight: 200;" fill="rgb(50, 49, 63)" stroke="none" stroke-width="1px">2.4k</text></g><line x1="0" y1="0" x2="270" y2="0" fill="rgb(0, 0, 0)" stroke="rgb(204, 204, 204)" stroke-width="1px"></line></g></g></g></g></svg>